<mxfile host="Electron" modified="2024-03-19T14:31:42.889Z" agent="Mozilla/5.0 (Macintosh; Intel Mac OS X 10_15_7) AppleWebKit/537.36 (KHTML, like Gecko) draw.io/24.0.4 Chrome/120.0.6099.109 Electron/28.1.0 Safari/537.36" etag="wsv3eidY0No7FzuF9aa3" version="24.0.4" type="device">
  <diagram name="DIAGRAM" id="j8oaFgjm6Nb8kMEsGDU8">
    <mxGraphModel dx="4059" dy="1814" grid="0" gridSize="10" guides="1" tooltips="1" connect="1" arrows="1" fold="1" page="1" pageScale="1" pageWidth="1169" pageHeight="827" math="0" shadow="0">
      <root>
        <mxCell id="pFAmEnQWEmt9Eg7NFccz-0" />
        <mxCell id="pFAmEnQWEmt9Eg7NFccz-1" value="original" style="" parent="pFAmEnQWEmt9Eg7NFccz-0" visible="0" />
        <mxCell id="pFAmEnQWEmt9Eg7NFccz-2" value="" style="shape=image;verticalLabelPosition=bottom;labelBackgroundColor=default;verticalAlign=top;aspect=fixed;imageAspect=0;image=https://docs.sign-in.service.gov.uk/images/top-level-technical-diagram.svg;" parent="pFAmEnQWEmt9Eg7NFccz-1" vertex="1">
          <mxGeometry x="-638" y="299" width="1330" height="174.01" as="geometry" />
        </mxCell>
        <mxCell id="pFAmEnQWEmt9Eg7NFccz-4" value="new" style="" parent="pFAmEnQWEmt9Eg7NFccz-0" />
        <mxCell id="pFAmEnQWEmt9Eg7NFccz-5" value="Your service" style="rounded=0;whiteSpace=wrap;html=1;fillColor=none;strokeWidth=2;fontSize=28;fontStyle=1" parent="pFAmEnQWEmt9Eg7NFccz-4" vertex="1">
          <mxGeometry x="-642" y="299" width="298" height="174.01" as="geometry" />
        </mxCell>
        <mxCell id="pFAmEnQWEmt9Eg7NFccz-6" value="&lt;font style=&quot;font-size: 28px;&quot;&gt;GOV.UK One Login&lt;br&gt;(OpenID provider)&lt;br&gt;&lt;/font&gt;" style="rounded=0;whiteSpace=wrap;html=1;fillColor=none;strokeWidth=2;fontSize=28;fontStyle=1" parent="pFAmEnQWEmt9Eg7NFccz-4" vertex="1">
          <mxGeometry x="-151" y="301.01" width="314" height="174.01" as="geometry" />
        </mxCell>
        <mxCell id="pFAmEnQWEmt9Eg7NFccz-7" value="Identity proofing and&amp;nbsp;&lt;div&gt;verification (optional)&amp;nbsp;&lt;/div&gt;" style="rounded=0;whiteSpace=wrap;html=1;fillColor=none;strokeWidth=2;fontSize=28;fontStyle=1" parent="pFAmEnQWEmt9Eg7NFccz-4" vertex="1">
          <mxGeometry x="356" y="301.01" width="330" height="174.01" as="geometry" />
        </mxCell>
        <mxCell id="pFAmEnQWEmt9Eg7NFccz-8" value="" style="endArrow=open;html=1;rounded=0;strokeWidth=2;entryX=0;entryY=0.5;entryDx=0;entryDy=0;endFill=0;" parent="pFAmEnQWEmt9Eg7NFccz-4" edge="1">
          <mxGeometry width="50" height="50" relative="1" as="geometry">
            <mxPoint x="-344" y="352.0107017543859" as="sourcePoint" />
            <mxPoint x="-151" y="353.145" as="targetPoint" />
          </mxGeometry>
        </mxCell>
        <mxCell id="pFAmEnQWEmt9Eg7NFccz-9" value="&lt;font size=&quot;1&quot; color=&quot;#ffffff&quot;&gt;&lt;b style=&quot;font-size: 27px;&quot;&gt;1&lt;/b&gt;&lt;/font&gt;" style="whiteSpace=wrap;html=1;aspect=fixed;fillColor=#000000;" parent="pFAmEnQWEmt9Eg7NFccz-4" vertex="1">
          <mxGeometry x="-271" y="332.01" width="38" height="38" as="geometry" />
        </mxCell>
        <mxCell id="pFAmEnQWEmt9Eg7NFccz-10" value="" style="endArrow=none;html=1;rounded=0;strokeWidth=2;entryX=0;entryY=0.5;entryDx=0;entryDy=0;endFill=0;startArrow=classic;startFill=1;" parent="pFAmEnQWEmt9Eg7NFccz-4" edge="1">
          <mxGeometry width="50" height="50" relative="1" as="geometry">
            <mxPoint x="-345" y="433.0107017543859" as="sourcePoint" />
            <mxPoint x="-152" y="434.145" as="targetPoint" />
          </mxGeometry>
        </mxCell>
        <mxCell id="pFAmEnQWEmt9Eg7NFccz-11" value="" style="endArrow=open;html=1;rounded=0;strokeWidth=2;endFill=0;" parent="pFAmEnQWEmt9Eg7NFccz-4" edge="1">
          <mxGeometry width="50" height="50" relative="1" as="geometry">
            <mxPoint x="167" y="353.01" as="sourcePoint" />
            <mxPoint x="354" y="353.01" as="targetPoint" />
          </mxGeometry>
        </mxCell>
        <mxCell id="pFAmEnQWEmt9Eg7NFccz-12" value="&lt;font color=&quot;#ffffff&quot;&gt;&lt;span style=&quot;font-size: 27px;&quot;&gt;&lt;b&gt;2&lt;/b&gt;&lt;/span&gt;&lt;/font&gt;" style="whiteSpace=wrap;html=1;aspect=fixed;fillColor=#000000;" parent="pFAmEnQWEmt9Eg7NFccz-4" vertex="1">
          <mxGeometry x="236" y="332.01" width="38" height="38" as="geometry" />
        </mxCell>
        <mxCell id="pFAmEnQWEmt9Eg7NFccz-13" value="" style="endArrow=none;html=1;rounded=0;strokeWidth=2;entryX=0;entryY=0.75;entryDx=0;entryDy=0;endFill=0;startArrow=classic;startFill=1;" parent="pFAmEnQWEmt9Eg7NFccz-4" edge="1">
          <mxGeometry width="50" height="50" relative="1" as="geometry">
            <mxPoint x="167" y="432.01" as="sourcePoint" />
            <mxPoint x="356" y="431.5174999999997" as="targetPoint" />
          </mxGeometry>
        </mxCell>
        <mxCell id="pFAmEnQWEmt9Eg7NFccz-14" value="&lt;font size=&quot;1&quot; color=&quot;#ffffff&quot;&gt;&lt;b style=&quot;font-size: 27px;&quot;&gt;3&lt;/b&gt;&lt;/font&gt;" style="whiteSpace=wrap;html=1;aspect=fixed;fillColor=#000000;" parent="pFAmEnQWEmt9Eg7NFccz-4" vertex="1">
          <mxGeometry x="236" y="412.01" width="38" height="38" as="geometry" />
        </mxCell>
        <mxCell id="pFAmEnQWEmt9Eg7NFccz-15" value="&lt;font color=&quot;#ffffff&quot;&gt;&lt;span style=&quot;font-size: 27px;&quot;&gt;&lt;b&gt;4&lt;/b&gt;&lt;/span&gt;&lt;/font&gt;" style="whiteSpace=wrap;html=1;aspect=fixed;fillColor=#000000;" parent="pFAmEnQWEmt9Eg7NFccz-4" vertex="1">
          <mxGeometry x="-271" y="416.01" width="38" height="38" as="geometry" />
        </mxCell>
      </root>
    </mxGraphModel>
  </diagram>
</mxfile>
